// Theremin optique //Branchement 
#include <Tone.h>
#include "pitches.h"

#define PHOTOCELL 0 //Photorésistance connecté à l'entrée A0 
const int buttonPin = 4; 
int on = 0; 
int lastState = LOW; //variable definitions 
long val = 0; //stockage de la valeur de Photoresistance 
long lastVal = 0; 
long maxread = 0; //valeur max de la phase de calibrage 
long minread = 1000; //valeur min de la phase de calibrage 
double f = 0; // fréquence du son 
double normf= 0; // fréquence normalisé 
double logfre = 0; // logarithme de la fréquence normalisé 
int ilogf = 0; // logarithme arrondi 
int i = 0;
double factor = 0; // échelle du facteur pour la calibration 
double shift = 0; // espace de calibration 
long maxfreq = NOTE_E5; // Maximum de la fréquence désirée après la calibration 
long minfreq = NOTE_E3; // minimum de la fréquence désirée après la calibration 

//Valeur pour changer l'écart entre 2 notes 
double gap = 1.148698355; //(pentatonic)
//double gap = 1.059463094; //(chromatic) 
Tone song, melody;

//notes in the melody:
int melodyTetris[] = {
  NOTE_E5, NOTE_E3, NOTE_B4, NOTE_C5, NOTE_D5, NOTE_E5, NOTE_D5, NOTE_C5, 
  NOTE_B4, NOTE_A4, NOTE_A3, NOTE_A4, NOTE_C5, NOTE_E5, NOTE_A3, NOTE_D5,
  NOTE_C5, NOTE_B4, NOTE_E4, NOTE_G4, NOTE_C5, NOTE_D5, NOTE_E3, NOTE_E5,
  NOTE_E3, NOTE_C5, NOTE_A3, NOTE_A4, NOTE_A3, NOTE_A4, NOTE_A3, NOTE_B2, 
  NOTE_C3, NOTE_D3, NOTE_D5, NOTE_F5, NOTE_A5, NOTE_C5, NOTE_C5, NOTE_G5, 
  NOTE_F5, NOTE_E5, NOTE_C3, 0, NOTE_C5, NOTE_E5, NOTE_A4, NOTE_G4, NOTE_D5,
  NOTE_C5, NOTE_B4, NOTE_E4, NOTE_B4, NOTE_C5, NOTE_D5, NOTE_G4, NOTE_E5, 
  NOTE_G4, NOTE_C5, NOTE_E4, NOTE_A4, NOTE_E3, NOTE_A4, 0, 
  NOTE_E5, NOTE_E3, NOTE_B4, NOTE_C5, NOTE_D5, NOTE_E5, NOTE_D5, NOTE_C5, 
  NOTE_B4, NOTE_A4, NOTE_A3, NOTE_A4, NOTE_C5, NOTE_E5, NOTE_A3, NOTE_D5,
  NOTE_C5, NOTE_B4, NOTE_E4, NOTE_G4, NOTE_C5, NOTE_D5, NOTE_E3, NOTE_E5,
  NOTE_E3, NOTE_C5, NOTE_A3, NOTE_A4, NOTE_A3, NOTE_A4, NOTE_A3, NOTE_B2, 
  NOTE_C3, NOTE_D3, NOTE_D5, NOTE_F5, NOTE_A5, NOTE_C5, NOTE_C5, NOTE_G5, 
  NOTE_F5, NOTE_E5, NOTE_C3, 0, NOTE_C5, NOTE_E5, NOTE_A4, NOTE_G4, NOTE_D5,
  NOTE_C5, NOTE_B4, NOTE_E4, NOTE_B4, NOTE_C5, NOTE_D5, NOTE_G4, NOTE_E5, 
  NOTE_G4, NOTE_C5, NOTE_E4, NOTE_A4, NOTE_E3, NOTE_A4, 0,
  NOTE_E4, NOTE_E3, NOTE_A2, NOTE_E3, NOTE_C4, NOTE_E3, NOTE_A2, NOTE_E3, 
  NOTE_D4, NOTE_E3, NOTE_GS2, NOTE_E3, NOTE_B3, NOTE_E3, NOTE_GS2, NOTE_E3,
  NOTE_C4, NOTE_E3, NOTE_A2, NOTE_E3, NOTE_A3, NOTE_E3, NOTE_A2, NOTE_E3, 
  NOTE_GS3, NOTE_E3, NOTE_GS2, NOTE_E3, NOTE_B3, NOTE_E3, NOTE_GS2, NOTE_E3, 
  NOTE_E4, NOTE_E3, NOTE_A2, NOTE_E3, NOTE_C4, NOTE_E3, NOTE_A2, NOTE_E3, 
  NOTE_D4, NOTE_E3, NOTE_GS2, NOTE_E3, NOTE_B3, NOTE_E3, NOTE_GS2, NOTE_E3,
  NOTE_C4, NOTE_E3, NOTE_E4, NOTE_E3, NOTE_A4, NOTE_E3, NOTE_A2, NOTE_E3, 
  NOTE_GS4, NOTE_E3, NOTE_GS2, NOTE_E3, NOTE_GS2, NOTE_E3, NOTE_GS2, NOTE_E3,
  NOTE_E5, NOTE_E3, NOTE_B4, NOTE_C5, NOTE_D5, NOTE_E5, NOTE_D5, NOTE_C5, 
  NOTE_B4, NOTE_A4, NOTE_A3, NOTE_A4, NOTE_C5, NOTE_E5, NOTE_A3, NOTE_D5,
  NOTE_C5, NOTE_B4, NOTE_E4, NOTE_G4, NOTE_C5, NOTE_D5, NOTE_E3, NOTE_E5,
  NOTE_E3, NOTE_C5, NOTE_A3, NOTE_A4, NOTE_A3, NOTE_A4, NOTE_A3, NOTE_B2, 
  NOTE_C3, NOTE_D3, NOTE_D5, NOTE_F5, NOTE_A5, NOTE_C5, NOTE_C5, NOTE_G5, 
  NOTE_F5, NOTE_E5, NOTE_C3, 0, NOTE_C5, NOTE_E5, NOTE_A4, NOTE_G4, NOTE_D5,
  NOTE_C5, NOTE_B4, NOTE_E4, NOTE_B4, NOTE_C5, NOTE_D5, NOTE_G4, NOTE_E5, 
  NOTE_G4, NOTE_C5, NOTE_E4, NOTE_A4, NOTE_E3, NOTE_A4, 0, 
  NOTE_E5, NOTE_E3, NOTE_B4, NOTE_C5, NOTE_D5, NOTE_E5, NOTE_D5, NOTE_C5, 
  NOTE_B4, NOTE_A4, NOTE_A3, NOTE_A4, NOTE_C5, NOTE_E5, NOTE_A3, NOTE_D5,
  NOTE_C5, NOTE_B4, NOTE_E4, NOTE_G4, NOTE_C5, NOTE_D5, NOTE_E3, NOTE_E5,
  NOTE_E3, NOTE_C5, NOTE_A3, NOTE_A4, NOTE_A3, NOTE_A4, NOTE_A3, NOTE_B2, 
  NOTE_C3, NOTE_D3, NOTE_D5, NOTE_F5, NOTE_A5, NOTE_C5, NOTE_C5, NOTE_G5, 
  NOTE_F5, NOTE_E5, NOTE_C3, 0, NOTE_C5, NOTE_E5, NOTE_A4, NOTE_G4, NOTE_D5,
  NOTE_C5, NOTE_B4, NOTE_E4, NOTE_B4, NOTE_C5, NOTE_D5, NOTE_G4, NOTE_E5, 
  NOTE_G4, NOTE_C5, NOTE_E4, NOTE_A4, NOTE_E3, NOTE_A4, 0,
  NOTE_E4, NOTE_E3, NOTE_A2, NOTE_E3, NOTE_C4, NOTE_E3, NOTE_A2, NOTE_E3, 
  NOTE_D4, NOTE_E3, NOTE_GS2, NOTE_E3, NOTE_B3, NOTE_E3, NOTE_GS2, NOTE_E3,
  NOTE_C4, NOTE_E3, NOTE_A2, NOTE_E3, NOTE_A3, NOTE_E3, NOTE_A2, NOTE_E3, 
  NOTE_GS3, NOTE_E3, NOTE_GS2, NOTE_E3, NOTE_B3, NOTE_E3, NOTE_GS2, NOTE_E3, 
  NOTE_E4, NOTE_E3, NOTE_A2, NOTE_E3, NOTE_C4, NOTE_E3, NOTE_A2, NOTE_E3, 
  NOTE_D4, NOTE_E3, NOTE_GS2, NOTE_E3, NOTE_B3, NOTE_E3, NOTE_GS2, NOTE_E3,
  NOTE_C4, NOTE_E3, NOTE_E4, NOTE_E3, NOTE_A4, NOTE_E3, NOTE_A2, NOTE_E3, 
  NOTE_GS4, NOTE_E3, NOTE_GS2, NOTE_E3, NOTE_GS2, NOTE_E3, NOTE_GS2, NOTE_E3,
};

//note durations: 4 = quarter note, 8 = eighth note, etc
int noteDurations[] = {
  8,8,8,8,8,16,16,8,8,8,8,8,8,8,8,8,8,8,8,8,8,8,8,8,8,8,8,8,8,8,8,8,8,
  8,4,8,8,16,16,8,8,8,8,8,8,8,16,16,8,8,8,8,8,8,8,8,8,8,8,8,8,8,4,4,
  8,8,8,8,8,16,16,8,8,8,8,8,8,8,8,8,8,8,8,8,8,8,8,8,8,8,8,8,8,8,8,8,8,
  8,4,8,8,16,16,8,8,8,8,8,8,8,16,16,8,8,8,8,8,8,8,8,8,8,8,8,8,8,4,4,
  8,8,8,8,8,8,8,8,8,8,8,8,8,8,8,8,8,8,8,8,8,8,8,8,8,8,8,8,8,8,8,8,
  8,8,8,8,8,8,8,8,8,8,8,8,8,8,8,8,8,8,8,8,8,8,8,8,8,8,8,8,8,8,8,8,
  8,8,8,8,8,16,16,8,8,8,8,8,8,8,8,8,8,8,8,8,8,8,8,8,8,8,8,8,8,8,8,8,8,
  8,4,8,8,16,16,8,8,8,8,8,8,8,16,16,8,8,8,8,8,8,8,8,8,8,8,8,8,8,4,4,
  8,8,8,8,8,16,16,8,8,8,8,8,8,8,8,8,8,8,8,8,8,8,8,8,8,8,8,8,8,8,8,8,8,
  8,4,8,8,16,16,8,8,8,8,8,8,8,16,16,8,8,8,8,8,8,8,8,8,8,8,8,8,8,4,4,
  8,8,8,8,8,8,8,8,8,8,8,8,8,8,8,8,8,8,8,8,8,8,8,8,8,8,8,8,8,8,8,8,
  8,8,8,8,8,8,8,8,8,8,8,8,8,8,8,8,8,8,8,8,8,8,8,8,8,8,8,8,8,8,8,8,
};

void setup() { 
  Serial.begin(9600);
  song.begin(8);
  melody.begin(9);
 
  for (i = 0; i< 500; i++) { // calibration loop runs for 5 seconds 
    val = analogRead(PHOTOCELL); // lecture de la photorésistance 
    melody.play(val);// joue la note brute pour guide la calibration 
    if (val > maxread) { // mise en place de la valeur la plus grande 
      maxread = val; 
    } 
    if (val < minread) { // mise en place de la valeur la plus petite 
      minread = val; 
    } 
    delay(10);
 } 
  // on utilise la calibration pour calculer l'échelle et les changements de paramètre 
  factor = (double)(maxfreq - minfreq) / (double)(maxread - minread); 
  shift = factor * minread - minfreq;
} 



void loop() { 

  for (int thisNote = 0; thisNote < sizeof(melodyTetris) / sizeof(melodyTetris[0]); thisNote++){

    /*
      to calculate the note duration, take one second divided by the note type.
      e.g. quarter note = 1000 / 4, eighth note = 1000/8, etc.
    */
    int noteDuration = 1000/noteDurations[thisNote];
    song.play(melodyTetris[thisNote],noteDuration);

    int buttonState = digitalRead(buttonPin); 
  if (buttonState == HIGH && lastState == LOW) { 
  //à l’appui du bouton, on allume ou on éteint le son
    if (on == 1) { 
      on = 0; 
    } 
    else { 
      on = 1; 
    } 
    delay(50); 
  } 

  
  
  lastState = buttonState; 
  val = analogRead(PHOTOCELL); // lecture de la photoresistance 
  //Serial.println(val); 
  double averageVal = (lastVal + val)/2; //calcul de la note moyenne avec la note précédente
  f = factor * averageVal - shift; // linéarise la fréquence // entre une valeur Max et min 
  normf = f / (double) minfreq; // divise une fonction exponentielle par la valeur min 
  logfre = log(normf) / log(gap); // prends le log de base gap et le résultat 
  ilogf = round(logfre); // est le nombre de notes au dessus de la plus basse, une fois arrondie
  f = minfreq * pow(gap,ilogf); //
  Serial.println(f); 
  if (on == 1) {
   melody.play(f); // produit la tonalité du signal si le son doit être on
  } 
  else { 
    melody.stop(); // on ne joue pas de son
  } 
  lastVal = averageVal; // sauvegarde de la note actuelle
    
    /*
      to distinguish the notes, set a minimum time between them.
      the note's duration + 30% seems to work well:
     */
    int pauseBetweenNotes = noteDuration * 1.30;
    delay(pauseBetweenNotes);
   
    song.stop(); //stop the tone playing:
  }

  
  
}


